<?xml version="1.0" encoding="UTF-8"?><svg id="Layer_1" xmlns="http://www.w3.org/2000/svg" xmlns:xlink="http://www.w3.org/1999/xlink" viewBox="0 0 481.58 481.58"><defs><linearGradient id="linear-gradient" x1="308.9" y1="368.9" x2="170.84" y2="109.24" gradientUnits="userSpaceOnUse"><stop offset="0" stop-color="#58595b"/><stop offset=".34" stop-color="#444345"/><stop offset="1" stop-color="#231f20"/></linearGradient><linearGradient id="linear-gradient-2" x1="270.01" y1="318.93" x2="200.09" y2="187.43" gradientUnits="userSpaceOnUse"><stop offset="0" stop-color="#58595b"/><stop offset="1" stop-color="#231f20"/></linearGradient></defs><circle cx="240.79" cy="240.79" r="215.79" style="fill:#fff; stroke:#fd0101; stroke-miterlimit:10; stroke-width:50px;"/><g id="Smartphone"><rect x="164.39" y="100.71" width="152.79" height="280.15" rx="26.28" ry="26.28" style="fill:url(#linear-gradient); stroke-width:0px;"/><rect x="218.81" y="114.39" width="43.92" height="6.75" rx="3.38" ry="3.38" style="fill:#fff; stroke-width:0px;"/><rect x="177.17" y="134.01" width="127.2" height="213.87" style="fill:#fff; stroke-width:0px;"/><rect x="230.28" y="357.96" width="20.98" height="12.98" style="fill:#fff; stroke-width:0px;"/></g><g id="Padlock"><path d="m198.24,310.99h85.1c3.52,0,6.38-2.86,6.38-6.38v-72.33c0-3.52-2.86-6.38-6.38-6.38h-6.38v-19.15c0-19.94-16.22-36.17-36.17-36.17s-36.17,16.22-36.17,36.17v19.15h-6.38c-3.52,0-6.38,2.86-6.38,6.38v72.33c0,3.52,2.86,6.38,6.38,6.38Zm60.62-47.08l-18.08,18.08c-1.25,1.25-2.88,1.87-4.51,1.87s-3.27-.62-4.51-1.87l-9.04-9.04c-2.49-2.49-2.49-6.53,0-9.03,2.49-2.49,6.53-2.49,9.03,0l4.53,4.53,13.57-13.57c2.49-2.49,6.53-2.49,9.03,0,2.49,2.49,2.49,6.53,0,9.03Zm-41.48-57.17c0-12.9,10.5-23.4,23.4-23.4s23.4,10.5,23.4,23.4v19.15h-46.8v-19.15Z" style="fill:url(#linear-gradient-2); stroke-width:0px;"/></g></svg>